<svg width="48" height="52" viewBox="0 0 48 52" fill="none" xmlns="http://www.w3.org/2000/svg">
<path d="M23.8998 38.1072C30.8231 38.1072 36.4355 32.4948 36.4355 25.5715C36.4355 18.6482 30.8231 13.0357 23.8998 13.0357C16.9765 13.0357 11.364 18.6482 11.364 25.5715C11.364 32.4948 16.9765 38.1072 23.8998 38.1072Z" stroke="#3A3A36"/>
<path d="M23.8998 25.5715C30.8231 25.5715 36.4355 19.9591 36.4355 13.0357C36.4355 6.11245 30.8231 0.5 23.8998 0.5C16.9765 0.5 11.364 6.11245 11.364 13.0357C11.364 19.9591 16.9765 25.5715 23.8998 25.5715Z" stroke="#3A3A36"/>
<path d="M34.764 31.8394C41.6873 31.8394 47.2998 26.2269 47.2998 19.3036C47.2998 12.3803 41.6873 6.76785 34.764 6.76785C27.8407 6.76785 22.2283 12.3803 22.2283 19.3036C22.2283 26.2269 27.8407 31.8394 34.764 31.8394Z" stroke="#3A3A36"/>
<path d="M34.764 44.3751C41.6873 44.3751 47.2998 38.7627 47.2998 31.8394C47.2998 24.9161 41.6873 19.3036 34.764 19.3036C27.8407 19.3036 22.2283 24.9161 22.2283 31.8394C22.2283 38.7627 27.8407 44.3751 34.764 44.3751Z" stroke="#3A3A36"/>
<path d="M23.8998 50.643C30.8231 50.643 36.4355 45.0306 36.4355 38.1073C36.4355 31.1839 30.8231 25.5715 23.8998 25.5715C16.9765 25.5715 11.364 31.1839 11.364 38.1073C11.364 45.0306 16.9765 50.643 23.8998 50.643Z" stroke="#3A3A36"/>
<path d="M13.0357 44.3751C19.9591 44.3751 25.5715 38.7627 25.5715 31.8394C25.5715 24.9161 19.9591 19.3036 13.0357 19.3036C6.11245 19.3036 0.5 24.9161 0.5 31.8394C0.5 38.7627 6.11245 44.3751 13.0357 44.3751Z" stroke="#3A3A36"/>
<path d="M13.0357 31.8394C19.9591 31.8394 25.5715 26.2269 25.5715 19.3036C25.5715 12.3803 19.9591 6.76785 13.0357 6.76785C6.11245 6.76785 0.5 12.3803 0.5 19.3036C0.5 26.2269 6.11245 31.8394 13.0357 31.8394Z" stroke="#3A3A36"/>
</svg>
