<svg width="20" height="23" viewBox="0 0 20 23" fill="none" xmlns="http://www.w3.org/2000/svg">
<path d="M12.9444 20.2898C12.6746 21.87 11.2954 22.9883 9.67072 22.9999C8.04603 23.0115 6.62442 21.87 6.36071 20.2956H2.34748C1.7655 20.2956 1.21686 20.2636 0.689438 20.0371C0.231735 19.8512 -0.0501612 19.4329 0.00743061 18.9391C0.0498666 18.5498 0.222642 18.1751 0.437853 17.8382L1.1138 16.7953C1.34113 16.4468 1.48663 16.0895 1.54725 15.677C1.65031 14.9944 1.717 14.335 1.77156 13.6466L2.03224 10.2102C2.11105 9.15 2.3111 8.15076 2.63543 7.14281C3.35382 4.89743 4.8118 3.38114 7.28824 2.89895L7.3034 1.48433C7.31249 0.659381 8.043 0 8.89172 0H10.4043C11.2045 0 11.9744 0.601286 11.9865 1.38848L12.0077 2.89314C15.4147 3.57286 16.6424 6.05934 17.1182 9.08319C17.4759 11.3344 17.4123 13.3677 17.7366 15.5928C17.7972 16.0081 17.9215 16.38 18.1488 16.7314L18.9309 17.9485C19.1127 18.2332 19.2401 18.5672 19.2916 18.8897C19.3704 19.4067 19.0915 19.8453 18.6005 20.0429C18.0761 20.2636 17.5275 20.2956 16.9455 20.2956L12.7471 20.2898L12.9444 20.2898ZM11.0014 2.73338L10.9893 1.49014C10.9893 1.17933 10.6468 0.961477 10.3558 0.961477H8.94325C8.57951 0.961477 8.29761 1.22871 8.30064 1.5831L8.31277 2.7421C9.26152 2.68691 10.086 2.69562 11.0014 2.73338ZM17.1122 19.3283C17.4335 19.3283 18.458 19.308 18.2792 18.8839C17.9094 18.0066 17.3122 17.4576 16.9606 16.5949C16.609 15.7322 16.4969 13.2922 16.4332 12.2901C16.2271 9.12096 15.9209 4.9991 12.132 3.94757C11.3318 3.72681 10.5376 3.66872 9.698 3.66872C8.92203 3.66872 8.18546 3.70357 7.43374 3.87786C5.95757 4.22062 4.76633 5.11238 4.08432 6.41081C3.29016 7.93 3.04464 9.76 2.92642 11.4593L2.75365 13.9632C2.70515 14.6516 2.62331 15.3081 2.50813 15.9849C2.43235 16.4322 2.25957 16.8476 2.01102 17.2311L1.24414 18.4191C1.13502 18.5876 1.02893 18.8432 1.00771 19.0262C1.05621 19.2702 1.77459 19.3312 2.00192 19.3312H17.1092L17.1122 19.3283ZM11.9016 20.2927H7.40949C7.61258 21.3181 8.58254 22.021 9.63132 22.0297C10.6801 22.0384 11.6743 21.3268 11.9016 20.2927Z" fill="#1D0404"/>
</svg>
