<svg width="57" height="57" viewBox="0 0 57 57" fill="none" xmlns="http://www.w3.org/2000/svg">
<g filter="url(#filter0_ddi_567_101)">
<rect x="4" width="49" height="49" rx="24.5" fill="#FAFAF9" shape-rendering="crispEdges"/>
<path d="M29.252 13C30.0522 13 30.8219 13.6015 30.834 14.3887L30.8555 15.8936C34.2623 16.5733 35.4899 19.0593 35.9658 22.083C36.3235 24.3342 36.2597 26.3677 36.584 28.5928C36.6446 29.0081 36.7688 29.38 36.9961 29.7314L37.7783 30.9482C37.9602 31.2329 38.0881 31.5672 38.1396 31.8896C38.2184 32.4067 37.9392 32.8454 37.4482 33.043C36.9239 33.2637 36.3749 33.2959 35.793 33.2959L31.791 33.29C31.5211 34.8699 30.143 35.9883 28.5186 36C26.8939 36.0116 25.4718 34.8702 25.208 33.2959H21.1953C20.6133 33.2959 20.0645 33.2637 19.5371 33.0371C19.0795 32.8512 18.7981 32.4331 18.8555 31.9395C18.8979 31.5502 19.0699 31.1748 19.2852 30.8379L19.9619 29.7949C20.1891 29.4465 20.3339 29.089 20.3945 28.6768C20.4976 27.9942 20.5646 27.3349 20.6191 26.6465L20.8799 23.21C20.9587 22.1498 21.1591 21.1504 21.4834 20.1426C22.2018 17.8974 23.6596 16.3816 26.1357 15.8994L26.1514 14.4844C26.1605 13.6595 26.8906 13.0001 27.7393 13H29.252ZM26.2568 33.293C26.46 34.3181 27.43 35.0204 28.4785 35.0293C29.5272 35.038 30.5215 34.3269 30.749 33.293H26.2568ZM28.5459 16.6689C27.7699 16.6689 27.033 16.7036 26.2812 16.8779C24.8052 17.2207 23.6136 18.1127 22.9316 19.4111C22.1377 20.9301 21.8926 22.7599 21.7744 24.459L21.6016 26.9629C21.5531 27.6513 21.4707 28.3085 21.3555 28.9854C21.2796 29.4325 21.1069 29.8482 20.8584 30.2314L20.0918 31.4189C19.9827 31.5874 19.8767 31.8434 19.8555 32.0264C19.9043 32.2702 20.6223 32.3311 20.8496 32.3311H35.957L35.96 32.3281C36.2814 32.3281 37.3058 32.3078 37.127 31.8838C36.7572 31.0066 36.1602 30.4574 35.8086 29.5947C35.457 28.732 35.3449 26.2922 35.2812 25.29C35.0751 22.1209 34.7684 17.9988 30.9795 16.9473C30.1794 16.7266 29.3854 16.669 28.5459 16.6689ZM27.791 13.9619C27.4273 13.9619 27.1455 14.2287 27.1484 14.583L27.1602 15.7422C28.1088 15.687 28.9334 15.6957 29.8486 15.7334L29.8369 14.4902C29.8369 14.1794 29.4941 13.9619 29.2031 13.9619H27.791Z" fill="#444444"/>
<path d="M29.252 13C30.0522 13 30.8219 13.6015 30.834 14.3887L30.8555 15.8936C34.2623 16.5733 35.4899 19.0593 35.9658 22.083C36.3235 24.3342 36.2597 26.3677 36.584 28.5928C36.6446 29.0081 36.7688 29.38 36.9961 29.7314L37.7783 30.9482C37.9602 31.2329 38.0881 31.5672 38.1396 31.8896C38.2184 32.4067 37.9392 32.8454 37.4482 33.043C36.9239 33.2637 36.3749 33.2959 35.793 33.2959L31.791 33.29C31.5211 34.8699 30.143 35.9883 28.5186 36C26.8939 36.0116 25.4718 34.8702 25.208 33.2959H21.1953C20.6133 33.2959 20.0645 33.2637 19.5371 33.0371C19.0795 32.8512 18.7981 32.4331 18.8555 31.9395C18.8979 31.5502 19.0699 31.1748 19.2852 30.8379L19.9619 29.7949C20.1891 29.4465 20.3339 29.089 20.3945 28.6768C20.4976 27.9942 20.5646 27.3349 20.6191 26.6465L20.8799 23.21C20.9587 22.1498 21.1591 21.1504 21.4834 20.1426C22.2018 17.8974 23.6596 16.3816 26.1357 15.8994L26.1514 14.4844C26.1605 13.6595 26.8906 13.0001 27.7393 13H29.252ZM26.2568 33.293C26.46 34.3181 27.43 35.0204 28.4785 35.0293C29.5272 35.038 30.5215 34.3269 30.749 33.293H26.2568ZM28.5459 16.6689C27.7699 16.6689 27.033 16.7036 26.2812 16.8779C24.8052 17.2207 23.6136 18.1127 22.9316 19.4111C22.1377 20.9301 21.8926 22.7599 21.7744 24.459L21.6016 26.9629C21.5531 27.6513 21.4707 28.3085 21.3555 28.9854C21.2796 29.4325 21.1069 29.8482 20.8584 30.2314L20.0918 31.4189C19.9827 31.5874 19.8767 31.8434 19.8555 32.0264C19.9043 32.2702 20.6223 32.3311 20.8496 32.3311H35.957L35.96 32.3281C36.2814 32.3281 37.3058 32.3078 37.127 31.8838C36.7572 31.0066 36.1602 30.4574 35.8086 29.5947C35.457 28.732 35.3449 26.2922 35.2812 25.29C35.0751 22.1209 34.7684 17.9988 30.9795 16.9473C30.1794 16.7266 29.3854 16.669 28.5459 16.6689ZM27.791 13.9619C27.4273 13.9619 27.1455 14.2287 27.1484 14.583L27.1602 15.7422C28.1088 15.687 28.9334 15.6957 29.8486 15.7334L29.8369 14.4902C29.8369 14.1794 29.4941 13.9619 29.2031 13.9619H27.791Z" stroke="#FAF8F0"/>
</g>
<defs>
<filter id="filter0_ddi_567_101" x="0" y="0" width="57" height="57" filterUnits="userSpaceOnUse" color-interpolation-filters="sRGB">
<feFlood flood-opacity="0" result="BackgroundImageFix"/>
<feColorMatrix in="SourceAlpha" type="matrix" values="0 0 0 0 0 0 0 0 0 0 0 0 0 0 0 0 0 0 127 0" result="hardAlpha"/>
<feOffset dy="4"/>
<feGaussianBlur stdDeviation="2"/>
<feComposite in2="hardAlpha" operator="out"/>
<feColorMatrix type="matrix" values="0 0 0 0 0 0 0 0 0 0 0 0 0 0 0 0 0 0 0.03 0"/>
<feBlend mode="normal" in2="BackgroundImageFix" result="effect1_dropShadow_567_101"/>
<feColorMatrix in="SourceAlpha" type="matrix" values="0 0 0 0 0 0 0 0 0 0 0 0 0 0 0 0 0 0 127 0" result="hardAlpha"/>
<feOffset dy="4"/>
<feGaussianBlur stdDeviation="2"/>
<feComposite in2="hardAlpha" operator="out"/>
<feColorMatrix type="matrix" values="0 0 0 0 0 0 0 0 0 0 0 0 0 0 0 0 0 0 0.04 0"/>
<feBlend mode="normal" in2="effect1_dropShadow_567_101" result="effect2_dropShadow_567_101"/>
<feBlend mode="normal" in="SourceGraphic" in2="effect2_dropShadow_567_101" result="shape"/>
<feColorMatrix in="SourceAlpha" type="matrix" values="0 0 0 0 0 0 0 0 0 0 0 0 0 0 0 0 0 0 127 0" result="hardAlpha"/>
<feOffset dy="4"/>
<feGaussianBlur stdDeviation="2"/>
<feComposite in2="hardAlpha" operator="arithmetic" k2="-1" k3="1"/>
<feColorMatrix type="matrix" values="0 0 0 0 1 0 0 0 0 1 0 0 0 0 1 0 0 0 0.3 0"/>
<feBlend mode="normal" in2="shape" result="effect3_innerShadow_567_101"/>
</filter>
</defs>
</svg>
