<svg width="20" height="22" viewBox="0 0 20 22" fill="none" xmlns="http://www.w3.org/2000/svg">
<path fill-rule="evenodd" clip-rule="evenodd" d="M7.8133 0.279562C5.25088 1.09422 3.02628 3.33736 2.29825 5.84022C2.11065 6.48575 1.95694 8.55114 1.95694 10.4305C1.95694 13.6661 1.8993 13.9358 0.870494 15.5165C-0.170193 17.1155 -0.191852 17.2216 0.354517 18.0438C0.876432 18.8292 1.14228 18.9022 3.48112 18.9022C5.86887 18.9022 6.0631 18.9587 6.43515 19.7641C6.92108 20.8157 8.80473 22 9.99179 22C11.1788 22 13.0625 20.8157 13.5484 19.7641C13.9205 18.9587 14.1147 18.9022 16.5025 18.9022C18.8472 18.9022 19.1061 18.8306 19.6339 18.0363C20.1856 17.2061 20.1681 17.1107 19.2053 15.7111C18.2649 14.3447 18.1898 13.9761 18.0172 9.90419C17.8446 5.83127 17.7667 5.45064 16.7851 3.88505C14.944 0.948509 10.8655 -0.690445 7.8133 0.279562ZM12.0204 2.14414C13.6414 2.72353 15.3929 4.52334 15.8733 6.10408C16.0969 6.8402 16.2799 9.02823 16.2799 10.9665C16.2799 13.8235 16.4011 14.6629 16.9213 15.4046C17.2741 15.9075 17.6762 16.5127 17.8153 16.7494C18.0144 17.0887 16.3557 17.1799 9.99773 17.1799H1.9276L2.81562 15.6857C3.60339 14.3605 3.70365 13.8097 3.70365 10.817C3.70365 6.75856 4.1812 5.00456 5.66485 3.61258C7.54291 1.85031 9.76262 1.33775 12.0204 2.14414ZM11.4377 19.6025C10.9843 19.9753 10.3334 20.2801 9.99179 20.2801C9.65013 20.2801 8.99931 19.9753 8.54587 19.6025L7.72107 18.9253H9.99179H12.2625L11.4377 19.6025Z" fill="#7A7A7A" fill-opacity="0.82"/>
</svg>
