<svg width="48" height="52" viewBox="0 0 48 52" fill="none" xmlns="http://www.w3.org/2000/svg">
<path d="M23.8998 38.1071C30.8231 38.1071 36.4355 32.4947 36.4355 25.5714C36.4355 18.6481 30.8231 13.0356 23.8998 13.0356C16.9765 13.0356 11.364 18.6481 11.364 25.5714C11.364 32.4947 16.9765 38.1071 23.8998 38.1071Z" stroke="#3A3A36"/>
<path d="M23.8998 25.5715C30.8231 25.5715 36.4355 19.9591 36.4355 13.0357C36.4355 6.11245 30.8231 0.5 23.8998 0.5C16.9765 0.5 11.364 6.11245 11.364 13.0357C11.364 19.9591 16.9765 25.5715 23.8998 25.5715Z" stroke="#3A3A36"/>
<path d="M34.764 31.8396C41.6873 31.8396 47.2998 26.2271 47.2998 19.3038C47.2998 12.3805 41.6873 6.76807 34.764 6.76807C27.8407 6.76807 22.2283 12.3805 22.2283 19.3038C22.2283 26.2271 27.8407 31.8396 34.764 31.8396Z" stroke="#3A3A36"/>
<path d="M34.764 44.3752C41.6873 44.3752 47.2998 38.7628 47.2998 31.8395C47.2998 24.9162 41.6873 19.3037 34.764 19.3037C27.8407 19.3037 22.2283 24.9162 22.2283 31.8395C22.2283 38.7628 27.8407 44.3752 34.764 44.3752Z" stroke="#3A3A36"/>
<path d="M23.8998 50.6428C30.8231 50.6428 36.4355 45.0303 36.4355 38.107C36.4355 31.1837 30.8231 25.5713 23.8998 25.5713C16.9765 25.5713 11.364 31.1837 11.364 38.107C11.364 45.0303 16.9765 50.6428 23.8998 50.6428Z" stroke="#3A3A36"/>
<path d="M13.0357 44.3752C19.9591 44.3752 25.5715 38.7628 25.5715 31.8395C25.5715 24.9162 19.9591 19.3037 13.0357 19.3037C6.11245 19.3037 0.5 24.9162 0.5 31.8395C0.5 38.7628 6.11245 44.3752 13.0357 44.3752Z" stroke="#3A3A36"/>
<path d="M13.0357 31.8396C19.9591 31.8396 25.5715 26.2271 25.5715 19.3038C25.5715 12.3805 19.9591 6.76807 13.0357 6.76807C6.11245 6.76807 0.5 12.3805 0.5 19.3038C0.5 26.2271 6.11245 31.8396 13.0357 31.8396Z" stroke="#3A3A36"/>
</svg>
