<svg width="14" height="14" viewBox="0 0 14 14" fill="none" xmlns="http://www.w3.org/2000/svg">
<g clip-path="url(#clip0_1018_1038)">
<path d="M8.8001 11.55V10.45C8.8001 9.86652 8.56831 9.30695 8.15573 8.89437C7.74315 8.48179 7.18357 8.25 6.6001 8.25H3.3001C2.71662 8.25 2.15704 8.48179 1.74446 8.89437C1.33188 9.30695 1.1001 9.86652 1.1001 10.45V11.55" stroke="#21211F" stroke-width="0.968" stroke-linecap="round" stroke-linejoin="round"/>
<path d="M8.80005 1.72021C9.27181 1.84252 9.68962 2.11801 9.98787 2.50345C10.2861 2.88889 10.448 3.36245 10.448 3.84981C10.448 4.33718 10.2861 4.81074 9.98787 5.19618C9.68962 5.58162 9.27181 5.85711 8.80005 5.97941" stroke="#21211F" stroke-width="0.968" stroke-linecap="round" stroke-linejoin="round"/>
<path d="M12.1002 11.5488V10.4488C12.0998 9.96136 11.9376 9.48784 11.6389 9.10259C11.3403 8.71733 10.9222 8.44217 10.4502 8.32031" stroke="#21211F" stroke-width="0.968" stroke-linecap="round" stroke-linejoin="round"/>
<path d="M4.95 6.0499C6.16503 6.0499 7.15 5.06493 7.15 3.8499C7.15 2.63488 6.16503 1.6499 4.95 1.6499C3.73497 1.6499 2.75 2.63488 2.75 3.8499C2.75 5.06493 3.73497 6.0499 4.95 6.0499Z" stroke="#21211F" stroke-width="0.968" stroke-linecap="round" stroke-linejoin="round"/>
</g>
<defs>
<clipPath id="clip0_1018_1038">
<rect width="13.2" height="13.2" fill="white"/>
</clipPath>
</defs>
</svg>
