<svg width="134" height="143" viewBox="0 0 134 143" fill="none" xmlns="http://www.w3.org/2000/svg">
<path d="M66.5997 106.672C86.1271 106.672 101.957 90.8418 101.957 71.3145C101.957 51.7871 86.1271 35.9571 66.5997 35.9571C47.0724 35.9571 31.2423 51.7871 31.2423 71.3145C31.2423 90.8418 47.0724 106.672 66.5997 106.672Z" stroke="#3A3A36" stroke-width="1.2"/>
<path d="M66.5997 71.3148C86.1271 71.3148 101.957 55.4847 101.957 35.9574C101.957 16.43 86.1271 0.599976 66.5997 0.599976C47.0724 0.599976 31.2423 16.43 31.2423 35.9574C31.2423 55.4847 47.0724 71.3148 66.5997 71.3148Z" stroke="#3A3A36" stroke-width="1.2"/>
<path d="M97.2427 88.9932C116.77 88.9932 132.6 73.1632 132.6 53.6358C132.6 34.1085 116.77 18.2784 97.2427 18.2784C77.7153 18.2784 61.8853 34.1085 61.8853 53.6358C61.8853 73.1632 77.7153 88.9932 97.2427 88.9932Z" stroke="#3A3A36" stroke-width="1.2"/>
<path d="M97.2427 124.351C116.77 124.351 132.6 108.521 132.6 88.9936C132.6 69.4663 116.77 53.6362 97.2427 53.6362C77.7153 53.6362 61.8853 69.4663 61.8853 88.9936C61.8853 108.521 77.7153 124.351 97.2427 124.351Z" stroke="#3A3A36" stroke-width="1.2"/>
<path d="M66.5997 142.03C86.1271 142.03 101.957 126.2 101.957 106.672C101.957 87.1449 86.1271 71.3149 66.5997 71.3149C47.0724 71.3149 31.2423 87.1449 31.2423 106.672C31.2423 126.2 47.0724 142.03 66.5997 142.03Z" stroke="#3A3A36" stroke-width="1.2"/>
<path d="M35.9574 124.351C55.4847 124.351 71.3148 108.521 71.3148 88.9936C71.3148 69.4663 55.4847 53.6362 35.9574 53.6362C16.43 53.6362 0.599976 69.4663 0.599976 88.9936C0.599976 108.521 16.43 124.351 35.9574 124.351Z" stroke="#3A3A36" stroke-width="1.2"/>
<path d="M35.9574 88.9932C55.4847 88.9932 71.3148 73.1632 71.3148 53.6358C71.3148 34.1085 55.4847 18.2784 35.9574 18.2784C16.43 18.2784 0.599976 34.1085 0.599976 53.6358C0.599976 73.1632 16.43 88.9932 35.9574 88.9932Z" stroke="#3A3A36" stroke-width="1.2"/>
<ellipse cx="97.1136" cy="53.5884" rx="2.93836" ry="2.93835" fill="#3A3A36"/>
<ellipse cx="127.401" cy="71.2184" rx="2.93836" ry="2.93835" fill="#3A3A36"/>
<ellipse cx="66.3739" cy="36.8624" rx="2.93836" ry="2.93835" fill="#3A3A36"/>
<ellipse cx="97.1136" cy="18.3281" rx="2.93836" ry="2.93835" fill="#3A3A36"/>
<ellipse cx="35.6344" cy="18.3281" rx="2.93836" ry="2.93835" fill="#3A3A36"/>
<ellipse cx="35.6344" cy="53.5884" rx="2.93836" ry="2.93835" fill="#3A3A36"/>
<ellipse cx="35.6344" cy="88.8487" rx="2.93836" ry="2.93835" fill="#3A3A36"/>
<ellipse cx="97.1136" cy="124.109" rx="2.93836" ry="2.93835" fill="#3A3A36"/>
<ellipse cx="35.6344" cy="124.109" rx="2.93836" ry="2.93835" fill="#3A3A36"/>
<ellipse cx="66.3739" cy="106.479" rx="2.93836" ry="2.93835" fill="#3A3A36"/>
<ellipse cx="97.1136" cy="88.8487" rx="2.93836" ry="2.93835" fill="#3A3A36"/>
<circle cx="66.6174" cy="71.6239" r="8.81507" fill="#3A3A36"/>
<ellipse cx="5.34668" cy="71.2184" rx="2.93836" ry="2.93835" fill="#3A3A36"/>
</svg>
