<svg width="25" height="26" viewBox="0 0 25 26" fill="none" xmlns="http://www.w3.org/2000/svg">
<path d="M22.8832 6.60832C23.4913 5.97401 23.8329 5.11364 23.833 4.21649C23.8331 3.31933 23.4917 2.45887 22.8838 1.82441C22.2759 1.18994 21.4514 0.833441 20.5917 0.833328C19.7319 0.833216 18.9073 1.1895 18.2993 1.82381L2.95125 17.843C2.68424 18.1208 2.48678 18.4628 2.37625 18.839L0.857083 24.0615C0.827361 24.1653 0.825116 24.2755 0.850586 24.3805C0.876057 24.4855 0.928292 24.5814 1.00175 24.6579C1.07521 24.7345 1.16715 24.7888 1.26782 24.8152C1.36849 24.8416 1.47413 24.8391 1.57354 24.8079L6.57954 23.2239C6.93968 23.1096 7.26744 22.9048 7.53404 22.6275L22.8832 6.60832Z" stroke="#3A3A36" stroke-width="1.66667" stroke-linecap="round" stroke-linejoin="round"/>
</svg>
