<svg width="550" height="396" viewBox="0 0 550 396" fill="none" xmlns="http://www.w3.org/2000/svg">
<g clip-path="url(#clip0_132_204)">
<g opacity="0.7">
<path d="M274.502 531.193C348.912 531.193 409.233 470.872 409.233 396.462C409.233 322.052 348.912 261.73 274.502 261.73C200.091 261.73 139.77 322.052 139.77 396.462C139.77 470.872 200.091 531.193 274.502 531.193Z" stroke="white" stroke-width="1.3122"/>
<path d="M274.502 396.463C348.912 396.463 409.233 336.142 409.233 261.732C409.233 187.321 348.912 127 274.502 127C200.091 127 139.77 187.321 139.77 261.732C139.77 336.142 200.091 396.463 274.502 396.463Z" stroke="white" stroke-width="1.3122"/>
<path d="M391.263 463.828C465.674 463.828 525.995 403.507 525.995 329.097C525.995 254.687 465.674 194.365 391.263 194.365C316.853 194.365 256.532 254.687 256.532 329.097C256.532 403.507 316.853 463.828 391.263 463.828Z" stroke="white" stroke-width="1.3122"/>
<path d="M391.263 598.563C465.674 598.563 525.995 538.241 525.995 463.831C525.995 389.421 465.674 329.099 391.263 329.099C316.853 329.099 256.532 389.421 256.532 463.831C256.532 538.241 316.853 598.563 391.263 598.563Z" stroke="white" stroke-width="1.3122"/>
<path d="M274.502 665.928C348.912 665.928 409.233 605.606 409.233 531.196C409.233 456.786 348.912 396.465 274.502 396.465C200.091 396.465 139.77 456.786 139.77 531.196C139.77 605.606 200.091 665.928 274.502 665.928Z" stroke="white" stroke-width="1.3122"/>
<path d="M157.732 598.563C232.142 598.563 292.463 538.241 292.463 463.831C292.463 389.421 232.142 329.099 157.732 329.099C83.3214 329.099 23 389.421 23 463.831C23 538.241 83.3214 598.563 157.732 598.563Z" stroke="white" stroke-width="1.3122"/>
<path d="M157.732 463.828C232.142 463.828 292.463 403.507 292.463 329.097C292.463 254.687 232.142 194.365 157.732 194.365C83.3214 194.365 23 254.687 23 329.097C23 403.507 83.3214 463.828 157.732 463.828Z" stroke="white" stroke-width="1.3122"/>
</g>
</g>
<defs>
<clipPath id="clip0_132_204">
<rect width="550" height="396" fill="white"/>
</clipPath>
</defs>
</svg>
