<svg width="25" height="25" viewBox="0 0 25 25" fill="none" xmlns="http://www.w3.org/2000/svg">
<g opacity="0.7">
<path d="M12.4487 22.406C17.948 22.406 22.406 17.948 22.406 12.4487C22.406 6.94947 17.948 2.49146 12.4487 2.49146C6.94947 2.49146 2.49146 6.94947 2.49146 12.4487C2.49146 17.948 6.94947 22.406 12.4487 22.406Z" stroke="black"/>
<path d="M12.4487 4.4829C13.5486 4.4829 14.4402 3.5913 14.4402 2.49145C14.4402 1.3916 13.5486 0.5 12.4487 0.5C11.3489 0.5 10.4573 1.3916 10.4573 2.49145C10.4573 3.5913 11.3489 4.4829 12.4487 4.4829Z" stroke="black"/>
<path d="M19.4885 7.40051C20.5884 7.40051 21.48 6.5089 21.48 5.40905C21.48 4.30921 20.5884 3.4176 19.4885 3.4176C18.3887 3.4176 17.4971 4.30921 17.4971 5.40905C17.4971 6.5089 18.3887 7.40051 19.4885 7.40051Z" stroke="black"/>
<path d="M22.406 14.4402C23.5059 14.4402 24.3975 13.5486 24.3975 12.4487C24.3975 11.3489 23.5059 10.4573 22.406 10.4573C21.3062 10.4573 20.4146 11.3489 20.4146 12.4487C20.4146 13.5486 21.3062 14.4402 22.406 14.4402Z" stroke="black"/>
<path d="M19.4885 21.48C20.5884 21.48 21.48 20.5884 21.48 19.4885C21.48 18.3887 20.5884 17.4971 19.4885 17.4971C18.3887 17.4971 17.4971 18.3887 17.4971 19.4885C17.4971 20.5884 18.3887 21.48 19.4885 21.48Z" stroke="black"/>
<path d="M12.4487 24.3973C13.5486 24.3973 14.4402 23.5057 14.4402 22.4059C14.4402 21.306 13.5486 20.4144 12.4487 20.4144C11.3489 20.4144 10.4573 21.306 10.4573 22.4059C10.4573 23.5057 11.3489 24.3973 12.4487 24.3973Z" stroke="black"/>
<path d="M5.40918 21.4799C6.50902 21.4799 7.40063 20.5882 7.40063 19.4884C7.40063 18.3886 6.50902 17.4969 5.40918 17.4969C4.30933 17.4969 3.41772 18.3886 3.41772 19.4884C3.41772 20.5882 4.30933 21.4799 5.40918 21.4799Z" stroke="black"/>
<path d="M2.49145 14.4402C3.5913 14.4402 4.4829 13.5486 4.4829 12.4487C4.4829 11.3489 3.5913 10.4573 2.49145 10.4573C1.3916 10.4573 0.5 11.3489 0.5 12.4487C0.5 13.5486 1.3916 14.4402 2.49145 14.4402Z" stroke="black"/>
<path d="M5.40918 7.40051C6.50902 7.40051 7.40063 6.5089 7.40063 5.40905C7.40063 4.30921 6.50902 3.4176 5.40918 3.4176C4.30933 3.4176 3.41772 4.30921 3.41772 5.40905C3.41772 6.5089 4.30933 7.40051 5.40918 7.40051Z" stroke="black"/>
</g>
</svg>
