<svg width="82" height="87" viewBox="0 0 82 87" fill="none" xmlns="http://www.w3.org/2000/svg">
<path d="M40.535 64.5389C52.2321 64.5389 61.7146 55.0565 61.7146 43.3593C61.7146 31.6621 52.2321 22.1797 40.535 22.1797C28.8378 22.1797 19.3553 31.6621 19.3553 43.3593C19.3553 55.0565 28.8378 64.5389 40.535 64.5389Z" stroke="white" stroke-width="2"/>
<path d="M40.535 43.3592C52.2321 43.3592 61.7146 33.8768 61.7146 22.1796C61.7146 10.4824 52.2321 1 40.535 1C28.8378 1 19.3553 10.4824 19.3553 22.1796C19.3553 33.8768 28.8378 43.3592 40.535 43.3592Z" stroke="white" stroke-width="2"/>
<path d="M58.8909 53.9493C70.5881 53.9493 80.0705 44.4668 80.0705 32.7697C80.0705 21.0725 70.5881 11.5901 58.8909 11.5901C47.1937 11.5901 37.7113 21.0725 37.7113 32.7697C37.7113 44.4668 47.1937 53.9493 58.8909 53.9493Z" stroke="white" stroke-width="2"/>
<path d="M58.8909 75.1286C70.5881 75.1286 80.0705 65.6462 80.0705 53.949C80.0705 42.2518 70.5881 32.7694 58.8909 32.7694C47.1937 32.7694 37.7113 42.2518 37.7113 53.949C37.7113 65.6462 47.1937 75.1286 58.8909 75.1286Z" stroke="white" stroke-width="2"/>
<path d="M40.535 85.7186C52.2321 85.7186 61.7146 76.2362 61.7146 64.539C61.7146 52.8419 52.2321 43.3594 40.535 43.3594C28.8378 43.3594 19.3553 52.8419 19.3553 64.539C19.3553 76.2362 28.8378 85.7186 40.535 85.7186Z" stroke="white" stroke-width="2"/>
<path d="M22.1796 75.1286C33.8768 75.1286 43.3592 65.6462 43.3592 53.949C43.3592 42.2518 33.8768 32.7694 22.1796 32.7694C10.4824 32.7694 1 42.2518 1 53.949C1 65.6462 10.4824 75.1286 22.1796 75.1286Z" stroke="white" stroke-width="2"/>
<path d="M22.1796 53.9493C33.8768 53.9493 43.3592 44.4668 43.3592 32.7697C43.3592 21.0725 33.8768 11.5901 22.1796 11.5901C10.4824 11.5901 1 21.0725 1 32.7697C1 44.4668 10.4824 53.9493 22.1796 53.9493Z" stroke="white" stroke-width="2"/>
</svg>
