<svg width="91" height="91" viewBox="0 0 91 91" fill="none" xmlns="http://www.w3.org/2000/svg">
<path d="M45.0019 56.0373C51.0966 56.0373 56.0373 51.0966 56.0373 45.002C56.0373 38.9073 51.0966 33.9666 45.0019 33.9666C38.9072 33.9666 33.9666 38.9073 33.9666 45.002C33.9666 51.0966 38.9072 56.0373 45.0019 56.0373Z" stroke="white" stroke-width="2"/>
<path opacity="0.8" d="M45.2726 67.3437C57.4619 67.3437 67.3433 57.4623 67.3433 45.273C67.3433 33.0837 57.4619 23.2023 45.2726 23.2023C33.0833 23.2023 23.2019 33.0837 23.2019 45.273C23.2019 57.4623 33.0833 67.3437 45.2726 67.3437Z" stroke="white" stroke-width="2"/>
<path opacity="0.6" d="M44.8707 77.9769C63.1547 77.9769 77.9768 63.1548 77.9768 44.8708C77.9768 26.5868 63.1547 11.7647 44.8707 11.7647C26.5867 11.7647 11.7646 26.5868 11.7646 44.8708C11.7646 63.1548 26.5867 77.9769 44.8707 77.9769Z" stroke="white" stroke-width="2"/>
<path opacity="0.4" d="M45.1414 89.2828C69.52 89.2828 89.2828 69.52 89.2828 45.1414C89.2828 20.7628 69.52 1 45.1414 1C20.7628 1 1 20.7628 1 45.1414C1 69.52 20.7628 89.2828 45.1414 89.2828Z" stroke="white" stroke-width="2"/>
<path d="M45.0669 42.3671C46.5582 42.3671 47.767 43.576 47.7671 45.0673C47.7671 46.5587 46.5582 47.7675 45.0669 47.7675C43.5756 47.7675 42.3667 46.5586 42.3667 45.0673C42.3668 43.5761 43.5756 42.3672 45.0669 42.3671Z" fill="white" stroke="white" stroke-width="2"/>
</svg>
