<svg width="37" height="78" viewBox="0 0 37 78" fill="none" xmlns="http://www.w3.org/2000/svg">
<path d="M18.2727 35.5455C27.8122 35.5455 35.5455 27.8122 35.5455 18.2727C35.5455 8.73326 27.8122 1 18.2727 1C8.73326 1 1 8.73326 1 18.2727C1 27.8122 8.73326 35.5455 18.2727 35.5455Z" stroke="white" stroke-width="2"/>
<path d="M18.2727 56.2731C27.8122 56.2731 35.5455 48.5399 35.5455 39.0004C35.5455 29.4609 27.8122 21.7277 18.2727 21.7277C8.73326 21.7277 1 29.4609 1 39.0004C1 48.5399 8.73326 56.2731 18.2727 56.2731Z" stroke="white" stroke-width="2"/>
<path d="M18.2727 77C27.8122 77 35.5455 69.2667 35.5455 59.7273C35.5455 50.1878 27.8122 42.4545 18.2727 42.4545C8.73326 42.4545 1 50.1878 1 59.7273C1 69.2667 8.73326 77 18.2727 77Z" stroke="white" stroke-width="2"/>
</svg>
