<svg width="79" height="65" viewBox="0 0 79 65" fill="none" xmlns="http://www.w3.org/2000/svg">
<path d="M3.50488 60.9802C15.1869 46.9618 26.869 44.6254 38.551 53.971C50.233 63.3166 61.9151 60.9802 73.5971 46.9618" stroke="white" stroke-width="2" stroke-linecap="round"/>
<path d="M3.50488 39.9527C15.1869 25.9342 26.869 23.5978 38.551 32.9435C50.233 42.2891 61.9151 39.9527 73.5971 25.9342" stroke="white" stroke-width="2" stroke-linecap="round"/>
<path d="M3.50488 18.9248C15.1869 4.90634 26.869 2.56993 38.551 11.9156C50.233 21.2612 61.9151 18.9248 73.5971 4.90634" stroke="white" stroke-width="2" stroke-linecap="round"/>
<path d="M73.5971 9.81294C76.3069 9.81294 78.5036 7.61625 78.5036 4.90649C78.5036 2.19673 76.3069 3.05176e-05 73.5971 3.05176e-05C70.8874 3.05176e-05 68.6907 2.19673 68.6907 4.90649C68.6907 7.61625 70.8874 9.81294 73.5971 9.81294Z" fill="white"/>
<path opacity="0.6" d="M3.50461 64.4849C5.44016 64.4849 7.00922 62.9159 7.00922 60.9803C7.00922 59.0448 5.44016 57.4757 3.50461 57.4757C1.56907 57.4757 0 59.0448 0 60.9803C0 62.9159 1.56907 64.4849 3.50461 64.4849Z" fill="white"/>
</svg>
