<svg width="6" height="34" viewBox="0 0 6 34" fill="none" xmlns="http://www.w3.org/2000/svg">
<path d="M2.6167 0V34" stroke="#3A3A36" stroke-width="0.7"/>
<path d="M2.6165 4.53332C3.55539 4.53332 4.3165 3.77221 4.3165 2.83332C4.3165 1.89444 3.55539 1.13332 2.6165 1.13332C1.67762 1.13332 0.916504 1.89444 0.916504 2.83332C0.916504 3.77221 1.67762 4.53332 2.6165 4.53332Z" stroke="#3A3A36" stroke-width="0.7"/>
<path d="M2.6165 11.6167C3.55539 11.6167 4.3165 10.8556 4.3165 9.9167C4.3165 8.97782 3.55539 8.2167 2.6165 8.2167C1.67762 8.2167 0.916504 8.97782 0.916504 9.9167C0.916504 10.8556 1.67762 11.6167 2.6165 11.6167Z" stroke="#3A3A36" stroke-width="0.7"/>
<path d="M2.61676 19.2667C3.86861 19.2667 4.88343 18.2519 4.88343 17C4.88343 15.7482 3.86861 14.7334 2.61676 14.7334C1.36492 14.7334 0.350098 15.7482 0.350098 17C0.350098 18.2519 1.36492 19.2667 2.61676 19.2667Z" stroke="#3A3A36" stroke-width="0.7"/>
<path d="M2.6165 25.7833C3.55539 25.7833 4.3165 25.0222 4.3165 24.0833C4.3165 23.1444 3.55539 22.3833 2.6165 22.3833C1.67762 22.3833 0.916504 23.1444 0.916504 24.0833C0.916504 25.0222 1.67762 25.7833 2.6165 25.7833Z" stroke="#3A3A36" stroke-width="0.7"/>
<path d="M2.6165 32.8666C3.55539 32.8666 4.3165 32.1055 4.3165 31.1666C4.3165 30.2277 3.55539 29.4666 2.6165 29.4666C1.67762 29.4666 0.916504 30.2277 0.916504 31.1666C0.916504 32.1055 1.67762 32.8666 2.6165 32.8666Z" stroke="#3A3A36" stroke-width="0.7"/>
</svg>
