<svg width="2051" height="2051" viewBox="0 0 2051 2051" fill="none" xmlns="http://www.w3.org/2000/svg">
<rect width="2051" height="2051" rx="213.572" fill="#8EB1B1"/>
<path d="M1025.59 1357.77C1208.9 1357.77 1357.51 1209.17 1357.51 1025.85C1357.51 842.531 1208.9 693.923 1025.59 693.923C842.268 693.923 693.66 842.531 693.66 1025.85C693.66 1209.17 842.268 1357.77 1025.59 1357.77Z" stroke="white" stroke-width="7"/>
<path d="M1025.59 1025.85C1208.9 1025.85 1357.51 877.243 1357.51 693.926C1357.51 510.608 1208.9 362 1025.59 362C842.268 362 693.66 510.608 693.66 693.926C693.66 877.243 842.268 1025.85 1025.59 1025.85Z" stroke="white" stroke-width="7"/>
<path d="M1313.25 1191.81C1496.57 1191.81 1645.18 1043.2 1645.18 859.887C1645.18 676.569 1496.57 527.961 1313.25 527.961C1129.94 527.961 981.328 676.569 981.328 859.887C981.328 1043.2 1129.94 1191.81 1313.25 1191.81Z" stroke="white" stroke-width="7"/>
<path d="M1313.25 1523.74C1496.57 1523.74 1645.18 1375.13 1645.18 1191.82C1645.18 1008.5 1496.57 859.89 1313.25 859.89C1129.94 859.89 981.328 1008.5 981.328 1191.82C981.328 1375.13 1129.94 1523.74 1313.25 1523.74Z" stroke="white" stroke-width="7"/>
<path d="M1025.59 1689.7C1208.9 1689.7 1357.51 1541.1 1357.51 1357.78C1357.51 1174.46 1208.9 1025.85 1025.59 1025.85C842.268 1025.85 693.66 1174.46 693.66 1357.78C693.66 1541.1 842.268 1689.7 1025.59 1689.7Z" stroke="white" stroke-width="7"/>
<path d="M737.926 1523.74C921.243 1523.74 1069.85 1375.13 1069.85 1191.82C1069.85 1008.5 921.243 859.89 737.926 859.89C554.608 859.89 406 1008.5 406 1191.82C406 1375.13 554.608 1523.74 737.926 1523.74Z" stroke="white" stroke-width="7"/>
<path d="M737.926 1191.81C921.243 1191.81 1069.85 1043.2 1069.85 859.887C1069.85 676.569 921.243 527.961 737.926 527.961C554.608 527.961 406 676.569 406 859.887C406 1043.2 554.608 1191.81 737.926 1191.81Z" stroke="white" stroke-width="7"/>
<circle cx="1312.04" cy="859.441" r="27.5845" fill="white"/>
<circle cx="1596.38" cy="1024.95" r="27.5845" fill="white"/>
<circle cx="1023.47" cy="702.421" r="27.5845" fill="white"/>
<circle cx="1312.04" cy="528.427" r="27.5845" fill="white"/>
<circle cx="734.892" cy="528.427" r="27.5845" fill="white"/>
<circle cx="734.892" cy="859.441" r="27.5845" fill="white"/>
<circle cx="734.892" cy="1190.45" r="27.5845" fill="white"/>
<circle cx="1312.04" cy="1521.47" r="27.5845" fill="white"/>
<circle cx="734.892" cy="1521.47" r="27.5845" fill="white"/>
<circle cx="1023.47" cy="1355.96" r="27.5845" fill="white"/>
<circle cx="1312.04" cy="1190.45" r="27.5845" fill="white"/>
<circle cx="1025.75" cy="1028.75" r="82.7534" fill="white"/>
<circle cx="450.559" cy="1024.95" r="27.5845" fill="white"/>
</svg>
