<svg width="2881" height="2881" viewBox="0 0 2881 2881" fill="none" xmlns="http://www.w3.org/2000/svg">
<g filter="url(#filter0_iii_822_268)">
<rect width="2881" height="2881" rx="300" fill="white"/>
</g>
<path d="M1727.89 1717.6C1573.83 2101.59 1120.8 2294.24 716.144 2148.04C311.485 2001.85 108.473 1571.96 262.536 1187.96C311.485 1066 390.662 963.296 488.755 884.646C491.29 882.611 494.02 880.39 496.75 878.354C506.501 870.767 516.252 863.55 526.393 856.332C734.281 709.396 1014.32 663.501 1274.28 757.511C1320.11 773.981 1363.21 794.153 1403.77 817.655" stroke="#776464" stroke-width="20"/>
<path d="M1461.11 854.113C1737.45 1047.5 1856.21 1398.37 1728.09 1717.6" stroke="#776464" stroke-width="20"/>
<path d="M1127.24 1190C1280.13 805.627 1732.57 611.5 2137.62 756.587C2542.67 901.673 2747.24 1331.01 2594.35 1715.38C2545.79 1837.52 2467 1940.41 2369.1 2019.43C2366.57 2021.47 2363.84 2023.69 2361.3 2025.72C2351.55 2033.31 2341.8 2040.71 2331.85 2047.74C2124.55 2195.24 1844.51 2242.06 1584.16 2148.79C1538.33 2132.32 1495.04 2112.33 1454.48 2089.01" stroke="#776464" stroke-width="20"/>
<path d="M1396.95 2052.74C1120.02 1860.28 1000.09 1509.59 1127.24 1189.99" stroke="#776464" stroke-width="20"/>
<path d="M1865.3 731.161C1878.74 731.161 1889.63 720.828 1889.63 708.081C1889.63 695.333 1878.74 685 1865.3 685C1851.87 685 1840.98 695.333 1840.98 708.081C1840.98 720.828 1851.87 731.161 1865.3 731.161Z" fill="#776464" stroke="#776464" stroke-width="20"/>
<path d="M1865.3 2221.16C1878.74 2221.16 1889.63 2210.83 1889.63 2198.08C1889.63 2185.33 1878.74 2175 1865.3 2175C1851.87 2175 1840.98 2185.33 1840.98 2198.08C1840.98 2210.83 1851.87 2221.16 1865.3 2221.16Z" fill="#776464" stroke="#776464" stroke-width="20"/>
<path d="M2406.27 940.6C2419.7 940.6 2430.59 930.266 2430.59 917.519C2430.59 904.772 2419.7 894.438 2406.27 894.438C2392.84 894.438 2381.95 904.772 2381.95 917.519C2381.95 930.266 2392.84 940.6 2406.27 940.6Z" fill="#776464" stroke="#776464" stroke-width="20"/>
<path d="M2645.37 1478.61C2658.8 1478.61 2669.69 1468.28 2669.69 1455.53C2669.69 1442.79 2658.8 1432.45 2645.37 1432.45C2631.94 1432.45 2621.05 1442.79 2621.05 1455.53C2621.05 1468.28 2631.94 1478.61 2645.37 1478.61Z" fill="#776464" stroke="#776464" stroke-width="20"/>
<path d="M2411.35 2006.59C2424.78 2006.59 2435.67 1996.25 2435.67 1983.51C2435.67 1970.76 2424.78 1960.43 2411.35 1960.43C2397.92 1960.43 2387.03 1970.76 2387.03 1983.51C2387.03 1996.25 2397.92 2006.59 2411.35 2006.59Z" fill="#776464" stroke="#776464" stroke-width="20"/>
<path d="M1310.87 2006.59C1324.3 2006.59 1335.19 1996.25 1335.19 1983.51C1335.19 1970.76 1324.3 1960.43 1310.87 1960.43C1297.44 1960.43 1286.55 1970.76 1286.55 1983.51C1286.55 1996.25 1297.44 2006.59 1310.87 2006.59Z" fill="#776464" stroke="#776464" stroke-width="20"/>
<path d="M1077.24 1478.43C1090.67 1478.43 1101.56 1468.1 1101.56 1455.35C1101.56 1442.6 1090.67 1432.27 1077.24 1432.27C1063.81 1432.27 1052.92 1442.6 1052.92 1455.35C1052.92 1468.1 1063.81 1478.43 1077.24 1478.43Z" fill="#776464" stroke="#776464" stroke-width="20"/>
<path d="M1309.12 952.86C1322.55 952.86 1333.44 942.527 1333.44 929.78C1333.44 917.033 1322.55 906.699 1309.12 906.699C1295.68 906.699 1284.79 917.033 1284.79 929.78C1284.79 942.527 1295.68 952.86 1309.12 952.86Z" fill="#776464" stroke="#776464" stroke-width="20"/>
<path d="M2175.56 791.828C2188.99 791.828 2199.88 781.495 2199.88 768.747C2199.88 756 2188.99 745.667 2175.56 745.667C2162.12 745.667 2151.23 756 2151.23 768.747C2151.23 781.495 2162.12 791.828 2175.56 791.828Z" fill="#776464" stroke="#776464" stroke-width="20"/>
<path d="M2586.95 1187.5C2600.38 1187.5 2611.27 1177.16 2611.27 1164.42C2611.27 1151.67 2600.38 1141.33 2586.95 1141.33C2573.52 1141.33 2562.63 1151.67 2562.63 1164.42C2562.63 1177.16 2573.52 1187.5 2586.95 1187.5Z" fill="#776464" stroke="#776464" stroke-width="20"/>
<path d="M2586.75 1743.96C2600.18 1743.96 2611.07 1733.63 2611.07 1720.88C2611.07 1708.14 2600.18 1697.8 2586.75 1697.8C2573.32 1697.8 2562.43 1708.14 2562.43 1720.88C2562.43 1733.63 2573.32 1743.96 2586.75 1743.96Z" fill="#776464" stroke="#776464" stroke-width="20"/>
<path d="M2176.24 2163.68C2189.67 2163.68 2200.56 2153.34 2200.56 2140.6C2200.56 2127.85 2189.67 2117.52 2176.24 2117.52C2162.81 2117.52 2151.92 2127.85 2151.92 2140.6C2151.92 2153.34 2162.81 2163.68 2176.24 2163.68Z" fill="#776464" stroke="#776464" stroke-width="20"/>
<path d="M1586.26 2175.34C1599.69 2175.34 1610.58 2165.01 1610.58 2152.26C1610.58 2139.52 1599.69 2129.18 1586.26 2129.18C1572.83 2129.18 1561.94 2139.52 1561.94 2152.26C1561.94 2165.01 1572.83 2175.34 1586.26 2175.34Z" fill="#776464" stroke="#776464" stroke-width="20"/>
<path d="M1138.73 1766.49C1152.16 1766.49 1163.05 1756.15 1163.05 1743.4C1163.05 1730.66 1152.16 1720.32 1138.73 1720.32C1125.29 1720.32 1114.4 1730.66 1114.4 1743.4C1114.4 1756.15 1125.29 1766.49 1138.73 1766.49Z" fill="#776464" stroke="#776464" stroke-width="20"/>
<path d="M1126.22 1209.92C1139.65 1209.92 1150.54 1199.58 1150.54 1186.84C1150.54 1174.09 1139.65 1163.76 1126.22 1163.76C1112.78 1163.76 1101.89 1174.09 1101.89 1186.84C1101.89 1199.58 1112.78 1209.92 1126.22 1209.92Z" fill="#776464" stroke="#776464" stroke-width="20"/>
<path d="M1537.61 791.828C1551.05 791.828 1561.94 781.495 1561.94 768.747C1561.94 756 1551.05 745.667 1537.61 745.667C1524.18 745.667 1513.29 756 1513.29 768.747C1513.29 781.495 1524.18 791.828 1537.61 791.828Z" fill="#776464" stroke="#776464" stroke-width="20"/>
<defs>
<filter id="filter0_iii_822_268" x="0" y="-206" width="2881" height="3210" filterUnits="userSpaceOnUse" color-interpolation-filters="sRGB">
<feFlood flood-opacity="0" result="BackgroundImageFix"/>
<feBlend mode="normal" in="SourceGraphic" in2="BackgroundImageFix" result="shape"/>
<feColorMatrix in="SourceAlpha" type="matrix" values="0 0 0 0 0 0 0 0 0 0 0 0 0 0 0 0 0 0 127 0" result="hardAlpha"/>
<feMorphology radius="16" operator="dilate" in="SourceAlpha" result="effect1_innerShadow_822_268"/>
<feOffset dy="123"/>
<feGaussianBlur stdDeviation="100"/>
<feComposite in2="hardAlpha" operator="arithmetic" k2="-1" k3="1"/>
<feColorMatrix type="matrix" values="0 0 0 0 1 0 0 0 0 1 0 0 0 0 1 0 0 0 0.6 0"/>
<feBlend mode="normal" in2="shape" result="effect1_innerShadow_822_268"/>
<feColorMatrix in="SourceAlpha" type="matrix" values="0 0 0 0 0 0 0 0 0 0 0 0 0 0 0 0 0 0 127 0" result="hardAlpha"/>
<feMorphology radius="55" operator="erode" in="SourceAlpha" result="effect2_innerShadow_822_268"/>
<feOffset dy="-206"/>
<feGaussianBlur stdDeviation="125"/>
<feComposite in2="hardAlpha" operator="arithmetic" k2="-1" k3="1"/>
<feColorMatrix type="matrix" values="0 0 0 0 0 0 0 0 0 0 0 0 0 0 0 0 0 0 0.15 0"/>
<feBlend mode="normal" in2="effect1_innerShadow_822_268" result="effect2_innerShadow_822_268"/>
<feColorMatrix in="SourceAlpha" type="matrix" values="0 0 0 0 0 0 0 0 0 0 0 0 0 0 0 0 0 0 127 0" result="hardAlpha"/>
<feOffset dy="-86"/>
<feGaussianBlur stdDeviation="123.85"/>
<feComposite in2="hardAlpha" operator="arithmetic" k2="-1" k3="1"/>
<feColorMatrix type="matrix" values="0 0 0 0 1 0 0 0 0 1 0 0 0 0 1 0 0 0 1 0"/>
<feBlend mode="normal" in2="effect2_innerShadow_822_268" result="effect3_innerShadow_822_268"/>
</filter>
</defs>
</svg>
