<svg width="40" height="39" viewBox="0 0 40 39" fill="none" xmlns="http://www.w3.org/2000/svg">
<path d="M33.6077 38.8762C29.3704 38.4489 24.9242 36.653 22.8975 32.6836C16.705 33.3688 9.87854 32.096 5.04307 28.0179C2.10394 25.5405 0.202254 22.0279 0.0236917 18.0898C-0.394144 8.81555 4.73952 2.3153 13.4694 0.618864C18.2263 -0.305796 23.0779 -0.22475 27.7473 1.0683C31.0703 1.98743 33.9469 3.73729 36.1361 6.41365C38.211 8.94817 39.1949 11.9966 39.5716 15.2587C40.3305 21.8068 36.9039 26.8833 31.4953 29.9188C29.9168 30.8048 31.6917 35.1223 33.9469 37.0324C34.2451 37.2848 34.4915 37.69 34.4826 38.0344C34.4737 38.3476 33.9612 38.9131 33.6077 38.8762ZM30.756 36.3638C29.415 33.9656 27.8383 30.1048 30.4882 28.2979C35.279 25.5957 38.386 21.385 37.7271 15.4834C37.3557 12.1569 36.2254 9.06422 33.8773 6.71573C31.8703 4.708 29.4168 3.41495 26.6455 2.75185C22.044 1.64852 17.2728 1.62089 12.682 2.75737C9.83211 3.46284 7.34474 4.84799 5.36984 6.9957C3.19496 9.36077 2.21108 12.3576 1.88967 15.5571C1.18435 22.5731 5.5859 27.5169 11.7106 29.6241C15.4336 30.9061 19.3013 31.2321 23.2028 30.7016C24.8635 30.4751 24.0153 32.481 26.9152 34.5587C28.0615 35.3802 29.324 35.9641 30.7578 36.3638H30.756Z" fill="#3A3A36"/>
</svg>
