<svg width="133" height="133" viewBox="0 0 133 133" fill="none" xmlns="http://www.w3.org/2000/svg">
<path d="M66.152 82.5555C75.2109 82.5555 82.5545 75.2118 82.5545 66.153C82.5545 57.0941 75.2109 49.7505 66.152 49.7505C57.0932 49.7505 49.7495 57.0941 49.7495 66.153C49.7495 75.2118 57.0932 82.5555 66.152 82.5555Z" stroke="white" stroke-width="3"/>
<path opacity="0.8" d="M66.5554 99.3603C84.6731 99.3603 99.3604 84.673 99.3604 66.5553C99.3604 48.4375 84.6731 33.7502 66.5554 33.7502C48.4377 33.7502 33.7504 48.4375 33.7504 66.5553C33.7504 84.673 48.4377 99.3603 66.5554 99.3603Z" stroke="white" stroke-width="2.5"/>
<path opacity="0.6" d="M65.9577 115.165C93.1342 115.165 115.165 93.1343 115.165 65.9577C115.165 38.7812 93.1342 16.7502 65.9577 16.7502C38.7811 16.7502 16.7502 38.7812 16.7502 65.9577C16.7502 93.1343 38.7811 115.165 65.9577 115.165Z" stroke="white" stroke-width="2"/>
<path opacity="0.4" d="M66.36 131.97C102.595 131.97 131.97 102.595 131.97 66.36C131.97 30.1246 102.595 0.75 66.36 0.75C30.1246 0.75 0.75 30.1246 0.75 66.36C0.75 102.595 30.1246 131.97 66.36 131.97Z" stroke="white" stroke-width="1.5"/>
<path d="M66.25 61.75C68.7353 61.75 70.75 63.7647 70.75 66.25C70.75 68.7353 68.7353 70.75 66.25 70.75C63.7647 70.75 61.75 68.7353 61.75 66.25C61.75 63.7647 63.7647 61.75 66.25 61.75Z" fill="white" stroke="white" stroke-width="2"/>
</svg>
