<svg width="112" height="92" viewBox="0 0 112 92" fill="none" xmlns="http://www.w3.org/2000/svg">
<path d="M5 87C21.6667 67 38.3333 63.6667 55 77C71.6667 90.3333 88.3333 87 105 67" stroke="white" stroke-width="3" stroke-linecap="round"/>
<path d="M5 57C21.6667 37 38.3333 33.6667 55 47C71.6667 60.3333 88.3333 57 105 37" stroke="white" stroke-width="3" stroke-linecap="round"/>
<path d="M5 27C21.6667 7 38.3333 3.66667 55 17C71.6667 30.3333 88.3333 27 105 7" stroke="white" stroke-width="3" stroke-linecap="round"/>
<path d="M105 14C108.866 14 112 10.866 112 7C112 3.13401 108.866 0 105 0C101.134 0 98 3.13401 98 7C98 10.866 101.134 14 105 14Z" fill="white"/>
<path opacity="0.6" d="M5 92C7.76142 92 10 89.7614 10 87C10 84.2386 7.76142 82 5 82C2.23858 82 0 84.2386 0 87C0 89.7614 2.23858 92 5 92Z" fill="white"/>
</svg>
