<svg width="58" height="124" viewBox="0 0 58 124" fill="none" xmlns="http://www.w3.org/2000/svg">
<path d="M28.8375 56.1753C43.9356 56.1753 56.175 43.9358 56.175 28.8377C56.175 13.7397 43.9356 1.50024 28.8375 1.50024C13.7394 1.50024 1.5 13.7397 1.5 28.8377C1.5 43.9358 13.7394 56.1753 28.8375 56.1753Z" stroke="white" stroke-width="3"/>
<path d="M28.8375 88.9807C43.9356 88.9807 56.175 76.7413 56.175 61.6432C56.175 46.5451 43.9356 34.3057 28.8375 34.3057C13.7394 34.3057 1.5 46.5451 1.5 61.6432C1.5 76.7413 13.7394 88.9807 28.8375 88.9807Z" stroke="white" stroke-width="3"/>
<path d="M28.8375 121.785C43.9356 121.785 56.175 109.546 56.175 94.4479C56.175 79.3498 43.9356 67.1104 28.8375 67.1104C13.7394 67.1104 1.5 79.3498 1.5 94.4479C1.5 109.546 13.7394 121.785 28.8375 121.785Z" stroke="white" stroke-width="3"/>
</svg>
