<svg width="17" height="17" viewBox="0 0 17 17" fill="none" xmlns="http://www.w3.org/2000/svg">
<g clip-path="url(#clip0_487_11980)">
<path d="M11 14.4375V13.0625C11 12.3332 10.7103 11.6337 10.1945 11.118C9.67882 10.6022 8.97935 10.3125 8.25 10.3125H4.125C3.39565 10.3125 2.69618 10.6022 2.18046 11.118C1.66473 11.6337 1.375 12.3332 1.375 13.0625V14.4375" stroke="white" stroke-width="1.21" stroke-linecap="round" stroke-linejoin="round"/>
<path d="M11 2.15039C11.5897 2.30327 12.112 2.64763 12.4848 3.12943C12.8576 3.61123 13.0599 4.20319 13.0599 4.81239C13.0599 5.42159 12.8576 6.01355 12.4848 6.49535C12.112 6.97715 11.5897 7.32151 11 7.47439" stroke="white" stroke-width="1.21" stroke-linecap="round" stroke-linejoin="round"/>
<path d="M15.125 14.436V13.061C15.1245 12.4517 14.9217 11.8598 14.5484 11.3782C14.1751 10.8967 13.6525 10.5527 13.0625 10.4004" stroke="white" stroke-width="1.21" stroke-linecap="round" stroke-linejoin="round"/>
<path d="M6.1875 7.5625C7.70628 7.5625 8.9375 6.33128 8.9375 4.8125C8.9375 3.29372 7.70628 2.0625 6.1875 2.0625C4.66872 2.0625 3.4375 3.29372 3.4375 4.8125C3.4375 6.33128 4.66872 7.5625 6.1875 7.5625Z" stroke="white" stroke-width="1.21" stroke-linecap="round" stroke-linejoin="round"/>
</g>
<defs>
<clipPath id="clip0_487_11980">
<rect width="16.5" height="16.5" fill="white"/>
</clipPath>
</defs>
</svg>
