<svg width="12" height="16" viewBox="0 0 12 16" fill="none" xmlns="http://www.w3.org/2000/svg">
<path d="M1.88951 0.351048L2.75111 0.0758478C3.55751 -0.181752 4.41991 0.235048 4.76551 1.04945L5.45351 2.67185C5.75351 3.37825 5.58711 4.20945 5.04231 4.72625L3.52791 6.16465C3.62124 7.02545 3.91031 7.87265 4.39511 8.70625C4.85612 9.51254 5.47386 10.2184 6.21191 10.7822L8.03271 10.1742C8.72231 9.94465 9.47351 10.2094 9.89671 10.831L10.8823 12.279C11.3751 13.0022 11.2863 13.999 10.6759 14.6118L10.0215 15.2686C9.37031 15.9222 8.44071 16.1598 7.57991 15.891C5.54897 15.2574 3.68151 13.3766 1.97751 10.2486C0.271374 7.11531 -0.330759 4.45718 0.171107 2.27425C0.382307 1.35585 1.03671 0.623848 1.89111 0.351048" fill="#405E5E"/>
</svg>
