<svg width="13" height="14" viewBox="0 0 13 14" fill="none" xmlns="http://www.w3.org/2000/svg">
<g clip-path="url(#clip0_568_105)">
<path d="M12.2379 13.6198C12.2525 10.4207 9.66895 7.85698 6.51373 7.84969C3.34457 7.84241 0.744438 10.4101 0.761037 13.6178C0.761701 13.778 0.561844 13.9084 0.425065 13.9005C0.227864 13.8886 0.0983887 13.7449 0.0983887 13.547C0.104364 10.7113 1.98541 8.22832 4.72896 7.43135C3.09359 6.57414 2.2915 4.77565 2.73172 3.01953C3.15932 1.31769 4.71568 0.105676 6.48319 0.0990568C8.25534 0.0924374 9.81967 1.29319 10.2586 2.99438C10.7134 4.75646 9.9113 6.57083 8.26796 7.43069C11.0002 8.22501 12.8766 10.6887 12.8992 13.5126C12.9005 13.7065 12.8242 13.8522 12.623 13.8952C12.4955 13.923 12.2365 13.825 12.2372 13.6192L12.2379 13.6198ZM6.19967 0.780191C4.3983 0.948324 3.11749 2.54691 3.29544 4.30237C3.47205 6.04326 5.03838 7.33338 6.78795 7.17319C8.55679 7.01102 9.86814 5.44951 9.7048 3.68213C9.54412 1.93991 7.99506 0.612059 6.19967 0.780191Z" fill="#000"/>
</g>
<defs>
<clipPath id="clip0_568_105">
<rect width="13" height="14" fill="white"/>
</clipPath>
</defs>
</svg>
