<svg width="29" height="29" viewBox="0 0 29 29" fill="none" xmlns="http://www.w3.org/2000/svg">
<path d="M9.81266 9.32005C9.75602 8.14192 10.1681 6.9893 10.9589 6.11418C11.7497 5.23907 12.8548 4.71266 14.0327 4.65005C15.2105 4.71266 16.3156 5.23907 17.1064 6.11418C17.8972 6.9893 18.3093 8.14192 18.2527 9.32005C18.3074 10.4967 17.8943 11.6472 17.1036 12.5203C16.3129 13.3934 15.2089 13.9182 14.0327 13.98C12.8564 13.9182 11.7524 13.3934 10.9617 12.5203C10.1711 11.6472 9.75797 10.4967 9.81266 9.32005ZM28.0727 14.04C28.0769 16.8272 27.2443 19.5515 25.6827 21.86C25.6418 21.9306 25.5949 21.9975 25.5427 22.06C24.2524 23.9179 22.5316 25.4359 20.5273 26.4842C18.5229 27.5325 16.2946 28.0801 14.0327 28.0801C11.7707 28.0801 9.54239 27.5325 7.53804 26.4842C5.53369 25.4359 3.81289 23.9179 2.52266 22.06C2.47038 21.9975 2.42355 21.9306 2.38266 21.86C1.16017 20.0391 0.381401 17.957 0.108824 15.7808C-0.163754 13.6045 0.0774428 11.3947 0.813069 9.32848C1.5487 7.26228 2.75828 5.39721 4.34481 3.88286C5.93134 2.36851 7.85067 1.24702 9.94887 0.608331C12.0471 -0.0303568 14.2657 -0.168467 16.4269 0.205078C18.5881 0.578622 20.6317 1.45342 22.3938 2.75933C24.1559 4.06523 25.5875 5.76589 26.5737 7.72491C27.5598 9.68393 28.0732 11.8468 28.0727 14.04ZM1.49266 14.04C1.4889 16.1706 2.02931 18.2668 3.06266 20.13C5.23266 17.28 9.39266 15.5 14.0327 15.5C18.6727 15.5 22.8327 17.28 25.0027 20.13C25.9319 18.4558 26.4655 16.591 26.5625 14.6786C26.6596 12.7662 26.3174 10.8569 25.5624 9.09721C24.8074 7.33749 23.6594 5.77401 22.2066 4.5266C20.7538 3.27919 19.0347 2.38097 17.181 1.9008C15.3273 1.42062 13.3883 1.37123 11.5125 1.75642C9.63682 2.14161 7.87419 2.95115 6.35976 4.12298C4.84532 5.29482 3.61929 6.79784 2.77564 8.51684C1.93199 10.2358 1.49312 12.1252 1.49266 14.04Z" fill="#7A7A7A"/>
</svg>
