<svg width="18" height="20" viewBox="0 0 18 20" fill="none" xmlns="http://www.w3.org/2000/svg">
<path d="M15.5248 3.8248L14.9668 12.8473C14.8246 15.1522 14.7535 16.3051 14.1748 17.134C13.8891 17.5437 13.5213 17.8894 13.0948 18.1492C12.2335 18.6748 11.0788 18.6748 8.76941 18.6748C6.45641 18.6748 5.2999 18.6748 4.4368 18.1483C4.0101 17.888 3.6423 17.5416 3.3568 17.1313C2.779 16.3015 2.7088 15.1468 2.5702 12.8383L2.0248 3.8248M0.674805 3.8248H16.8748M12.4252 3.8248L11.8105 2.5576C11.4028 1.7152 11.1985 1.2949 10.8466 1.0321C10.7684 0.973889 10.6857 0.922119 10.5991 0.877305C10.2094 0.674805 9.7414 0.674805 8.8063 0.674805C7.8469 0.674805 7.3672 0.674805 6.9703 0.885405C6.88257 0.932395 6.79888 0.98658 6.7201 1.0474C6.3646 1.3201 6.16571 1.7566 5.76791 2.6287L5.22251 3.8248" stroke="black" stroke-width="1.35" stroke-linecap="round"/>
</svg>
